# xmcd
#
# Track frame offsets: 
#        150
#        8071
#        25440
#        45030
#        54670
#        67997
#        90695
#        108756
#        134173
#        151998
#        168526
#        181371
#        203521
#        220750
#
# Disc length: 3186 seconds
#
# Revision: 0
# Processed by: cddbd v1.5.2PL0 Copyright (c) Steve Scherf et al.
# Submitted via: ExactAudioCopyFreeDBPlugin 1.0
#
DISCID=b40c700e
DTITLE=Cory Branan - Adios
DYEAR=2017
DGENRE=Country
TTITLE0=I Only Know
TTITLE1=Imogene
TTITLE2=Blacksburg
TTITLE3=Yeah, So What
TTITLE4=You Got Through
TTITLE5=The Vow
TTITLE6=Walls, MS
TTITLE7=Cold Blue Moonlight
TTITLE8=Another Nightmare In America
TTITLE9=Chameleon Moon
TTITLE10=Equinox
TTITLE11=Don't Go
TTITLE12=Visiting Hours
TTITLE13=My Father Was An Accordion Player
EXTD=
EXTT0=
EXTT1=
EXTT2=
EXTT3=
EXTT4=
EXTT5=
EXTT6=
EXTT7=
EXTT8=
EXTT9=
EXTT10=
EXTT11=
EXTT12=
EXTT13=
PLAYORDER=
